<?xml version="1.0" encoding="UTF-8"?>
<svg id="Layer_1" data-name="Layer 1" xmlns="http://www.w3.org/2000/svg" viewBox="0 0 24 22">
  <defs>
    <style>
      .cls-1 {
        fill: #fff;
      }
    </style>
  </defs>
  <rect class="cls-1" x="2.73" y="6.69" width="18.61" height="12.61"/>
  <rect class="cls-1" x="7.56" y="1.82" width="4.23" height="3.81"/>
  <rect class="cls-1" x="2.53" y="1.11" width="4.16" height="4.52"/>
  <path d="M20.5,0H3.5C1.57,0,0,1.57,0,3.5v18.5h24V3.5c0-1.93-1.57-3.5-3.5-3.5ZM9.5,2c.83,0,1.5.67,1.5,1.5s-.67,1.5-1.5,1.5-1.5-.67-1.5-1.5.67-1.5,1.5-1.5ZM4.5,2c.83,0,1.5.67,1.5,1.5s-.67,1.5-1.5,1.5-1.5-.67-1.5-1.5.67-1.5,1.5-1.5ZM21,19H3V7h18v12ZM12.85,15.93l2.94-2.94-2.94-2.94,2.12-2.12,3.3,3.3c.47.47.73,1.1.73,1.76s-.26,1.29-.73,1.76l-3.3,3.3-2.12-2.12ZM5,13c0-.66.26-1.29.73-1.76l3.3-3.3,2.12,2.12-2.94,2.94,2.94,2.94-2.12,2.12-3.3-3.3c-.47-.47-.73-1.1-.73-1.76Z"/>
</svg>